<svg xmlns="http://www.w3.org/2000/svg" viewBox="0 0 200 200"><g fill="none" stroke-width="2"><path stroke="#c65c63" d="M101.79 34.75q-.01.14-.05.28-.07.26-.34.21l-4.94-.99M83.46 32q-2.45.27-4.5-1" vector-effect="non-scaling-stroke"/><path stroke="#9c9b9b" d="M66.5 19.96q-.36-1.54.5-2.67M74.79 10.25q.13-1.08-.79-1.71" vector-effect="non-scaling-stroke"/><path stroke="#b2484f" d="M72.25 30.21q-3.65.01-6.96-1.46M52.46 25.75q-3.07-.27-4.25-3" vector-effect="non-scaling-stroke"/><path stroke="#d40c19" d="M130.29 41.25q.18.5.69.64.46.12.17.49-.47.62.07 1.14.4.39.19.89-.57 1.32-1.66 1.88M131.21 60.5q1.12 1.98.83 3.91M130 78.21l-1.31 2.63q-.2.4-.06.82l.24.69q.05.15-.11.15-.13 0-.27-.01-1.53-.12-.01.55.74.32.27.78M125.46 87.25q-.25.35-.17.63.09.34-.13.61l-.86 1.07q-.27.33.07.57 1.61 1.14 2.68-.24.32-.4.65-.02.16.18.08.55-.08.33-.41.42l-1.36.36q-.24.07-.05.24l.29.27" vector-effect="non-scaling-stroke"/><path stroke="#d66d73" d="M120.5 93.54 115.71 95M101.25 99.54q-1.65.04-2.79 1.21" vector-effect="non-scaling-stroke"/><path stroke="#c65c63" d="M95.96 101.5q-1.94.3-3.5 1.5M78 108.79 74.71 110" vector-effect="non-scaling-stroke"/><path stroke="#bd535a" d="M73 110.79h-.75" vector-effect="non-scaling-stroke"/><path stroke="#d40c19" d="M72.25 110.79q-.41.1-.71-.23-.36-.37.15-.31.37.04.3-.37-.05-.29-.28-.49l-2.21-1.85M68.5 105.79q-1.06-1.02-2.19-.87-.22.03-.33-.16l-.27-.51M66.5 99.54q-2.25.76-4.5.17" vector-effect="non-scaling-stroke"/><path stroke="#939292" d="M54.97 144.76q1.6-1.39.84-3.62-.17-.49-.14-1.02l.29-4.62" vector-effect="non-scaling-stroke"/><path stroke="#b5565d" d="M72.25 110.79 68.04 113" vector-effect="non-scaling-stroke"/><path stroke="#aa4b52" d="M53 120.04 47.21 123" vector-effect="non-scaling-stroke"/><path stroke="#a24349" d="m32.25 131.04-.75-.33" vector-effect="non-scaling-stroke"/><path stroke="#b7b7b7" d="M96 186.71q1.38-.8 1.25-2.42M88.29 174.75q-.32-1.3-1.29-2.21" vector-effect="non-scaling-stroke"/><path stroke="silver" d="M87.5 163.96q.53-1.73.04-3.46M106.04 145.25l-.08-2.75M105.21 136.75q.94-1.76-.13-3.29M104 122.04l-1.25-2.58" vector-effect="non-scaling-stroke"/><path stroke="#a7a6a6" d="M68.29 171.25q-.23-.93-1.12-1.2-.55-.16-.59-.73l-.12-1.57" vector-effect="non-scaling-stroke"/><path stroke="#9c9b9b" d="M56.25 164.21 54 161.54" vector-effect="non-scaling-stroke"/><path stroke="#a7a6a6" d="M65.5 154.29q-.7-2.56.47-4.87.06-.12-.07-.17c-.44-.2.04-.59.35-.54M68.79 137.5q0-.67-.53-.82-.48-.13-.43-.63.13-1.21-.83-2.01" vector-effect="non-scaling-stroke"/><path stroke="#939292" d="M48.04 174q-.17.25-.16.59 0 .16-.16.16h-.27q-.24 0-.16.22.6 1.82-.29 3.49" vector-effect="non-scaling-stroke"/><path stroke="#807f7f" d="m31.46 171 .63-4.01q.1-.65.74-.51 2.3.49 2.63-1.73M29.04 148q.15-1.59-1.08-2.5" vector-effect="non-scaling-stroke"/></g><path fill="#afafaf" d="M101.79 34.75q-.01.14-.05.28-.07.26-.34.21l-4.94-.99-4.16-8.15a.63.62-32.2 0 0-.94-.21L83.46 32q-2.45.27-4.5-1l10.79-6.88a.35.35 0 0 0-.16-.65q-11.73-.86-23.09-3.51-.36-1.54.5-2.67l23.08 3.54q.78.12.42-.58-3.25-6.44-4.17-13.56a.42.41-13.3 0 0-.56-.34l-10.98 3.9q.13-1.08-.79-1.71l12.67-4.5q.53-.19.75.33c4.52 10.47 7.81 19.43 14.37 30.38Z"/><path fill="#888787" d="M74 8.54q.92.63.79 1.71L63.7 16.01a.39.38 35.8 0 0 .12.72l3.18.56q-.86 1.13-.5 2.67l-4.43-1.16q-.95-.25-.27.46l10.45 10.95q-3.65.01-6.96-1.46l-6.19-9.29q-.3-.45-.76-.17-3.85 2.38-5.88 6.46-3.07-.27-4.25-3Q59.56 12.91 74 8.54Z"/><path fill="#dc0916" d="M48.21 22.75q1.18 2.73 4.25 3c1.32 1.85 9.82 3.11 12.21 3.42q.3.04.48-.19.08-.11.14-.23 3.31 1.47 6.96 1.46 3.27 1.2 6.71.79 2.05 1.27 4.5 1l13 2.25 4.94.99q.27.05.34-.21.04-.14.05-.28c.72.51.58.71 1.6.89q13.55 2.33 26.9 5.61.18.5.69.64.46.12.17.49-.47.62.07 1.14.4.39.19.89-.57 1.32-1.66 1.88l-3.12-.82q-.58-.15-.7.44-1.75 9.37-5.24 18.25-.29.73.43.44l10.09-4.1q1.12 1.98.83 3.91l-10.32 4.73q-.63.29-.09.72 4.68 3.7 8.37 8.35l-1.31 2.63q-.2.4-.06.82l.24.69q.05.15-.11.15-.13 0-.27-.01-1.53-.12-.01.55.74.32.27.78-5.89-5.86-12.99-9.99a.43.43 0 0 0-.56.11q-8.77 11.76-18.99 22.31a.26.26 0 0 0 .27.43l28.98-9.43q-.25.35-.17.63.09.34-.13.61l-.86 1.07q-.27.33.07.57 1.61 1.14 2.68-.24.32-.4.65-.02.16.18.08.55-.08.33-.41.42l-1.36.36q-.24.07-.05.24l.29.27-5.75 1.83-4.79 1.46q-7.38 1.77-14.46 4.54-1.65.04-2.79 1.21-1.47-.25-2.5.75-1.94.3-3.5 1.5-7.42 2.42-14.46 5.79L74.71 110l-1.71.79h-.75q-.41.1-.71-.23-.36-.37.15-.31.37.04.3-.37-.05-.29-.28-.49l-2.21-1.85 17.54-8.09q.42-.19.31-.63-.99-4.22-3.46-7.78a.45.44-44 0 0-.72-.01q-6.29 8.39-14.67 14.76-1.06-1.02-2.19-.87-.22.03-.33-.16l-.27-.51q5.93-4.52 10.57-10.34.52-.65-.19-.22l-9.59 5.85q-2.25.76-4.5.17 11.36-14.8 11.55-32.18c.17-15.54-13.31-29.59-24.95-39.61q-2.74-2.36-.39-5.17ZM65.4 33.29l-7.62-2.11q-1.29-.36-.3.54 6.58 5.91 11.42 13.32a.41.41 0 0 0 .74-.34l-3.15-10.36a1.59 1.59 0 0 0-1.09-1.05Zm5.4 1.3a.31.31 0 0 0-.35.38l3.57 13.6a.31.31 0 0 0 .49.16l13.54-10.82a.31.31 0 0 0-.14-.54L70.8 34.59Zm7.57 17.19 15.25 4.48q.51.15.56-.38.79-8.33-2.12-16.13-.23-.6-.71-.18L78.22 51.08q-.56.49.15.7Zm39.31-8.1q-10.5-2.94-21.35-4.1a.33.33 0 0 0-.36.42q2.14 7.69 1.73 15.7-.03.7.57.34l19.49-11.8a.31.31 0 0 0-.08-.56Zm-16.14 15 12.39 7.15q.22.13.37-.08 6.41-8.9 8.25-19.82a.21.21 0 0 0-.32-.21l-20.69 12.34a.36.36 0 0 0 0 .62Zm-11.07 1.71-13.6-3.79q-.83-.23-.67.61 1.46 7.94.38 15.96-.14 1.03.63.32l13.43-12.43q.52-.48-.17-.67Zm17.21 8.76-10.25-5.63a.51.5-70.1 0 0-.74.35q-1.36 7.65-4.7 14.68-.61 1.27.6.56l15.11-8.87q.95-.56-.02-1.09Zm-29.41 8.73q3.46 1.88 5.69 5.11a.74.74 0 0 0 1.24-.02q5.16-8.04 7.03-17.45.14-.67-.38-.22L78.18 76.99a.54.54 0 0 0 .09.89Zm13.39 18.29q8.9-9.11 15.5-19.98a.29.28-88.7 0 0-.38-.4L87.77 86.26q-.47.26-.28.76l3.42 9a.46.45-33.3 0 0 .75.15ZM76.07 83.01q-1.17-.57-1.66.63-2.28 5.61-5.69 10.58-1.08 1.58.48.46l10.75-7.71q.42-.3.11-.71-1.64-2.11-3.99-3.25Z"/><path fill="#cc0f1c" d="M130.29 41.25c23.31 4.4 42.83 16.23 55.95 36.07a.66.66 0 0 1-.44 1.02q-30.1 5.2-59.55 13.37l-.29-.27q-.19-.17.05-.24l1.36-.36q.33-.09.41-.42.08-.37-.08-.55-.33-.38-.65.02-1.07 1.38-2.68.24-.34-.24-.07-.57l.86-1.07q.22-.27.13-.61-.08-.28.17-.63l4.32-1.39q.63-.21.19-.69l-1.22-1.35q.47-.46-.27-.78-1.52-.67.01-.55.14.01.27.01.16 0 .11-.15l-.24-.69q-.14-.42.06-.82l1.31-2.63 3.89 4.92q.49.61.97 0l20.02-25.49a.31.31 0 0 0-.34-.49l-22.5 7.26q.29-1.93-.83-3.91l20.88-5.79a.35.34 48 0 0 .03-.65q-10.91-4.37-22.37-7.77 1.09-.56 1.66-1.88.21-.5-.19-.89-.54-.52-.07-1.14.29-.37-.17-.49-.51-.14-.69-.64Zm51.46 34.8c-6.47-7.48-14.37-13.73-23.04-18.49q-.46-.25-.67.22-6.46 14.53-18.56 24.88a.56.56 0 0 0 .51.97q20.46-5.32 41.53-7.04.65-.05.23-.54Z"/><path fill="#d0d0d0" d="M120.5 93.54c2.92 31.74-1.61 60.82-17.08 88.71-1.86 3.35-2.36 5.72-7.42 4.46q1.38-.8 1.25-2.42l1.92.06q.51.01.7-.47l5.55-14.63a.37.37 0 0 0-.48-.48l-16.65 5.98q-.32-1.3-1.29-2.21l16.27-5.31q1.08-.36-.04-.55l-15.73-2.72q.53-1.73.04-3.46 9.39 2.68 19.35 3.35.6.04.78-.54l6.48-21.38a.41.4-4.9 0 0-.57-.48l-7.54 3.8-.08-2.75 6.13-2.81q.71-.32-.03-.58l-6.85-2.36q.94-1.76-.13-3.29l9.19 3.13q.55.18.64-.39 1.79-10.25 1.28-20.66-.04-.65-.6-.32L104 122.04l-1.25-2.58 11.08-6.37q.6-.35.04-.77l-15.41-11.57q1.14-1.17 2.79-1.21l14.61 10.5q.61.44.57-.31L115.71 95l4.79-1.46Z"/><path fill="#cc0f1c" d="M66.5 99.54q-4.52 4.38-8.15 9.53-.69.97.27.27l7.09-5.09.27.51q.11.19.33.16 1.13-.15 2.19.87l-4.38 3.54q-1.22.99.23.38l5.15-2.17 2.21 1.85q.23.2.28.49.07.41-.3.37-.51-.06-.15.31.3.33.71.23L68.04 113q-7.79 2.94-15.04 7.04L47.21 123q-7.72 3.57-14.96 8.04l-.75-.33q16.84-13.95 30.5-31 2.25.59 4.5-.17Z"/><path fill="#afafaf" d="M95.96 101.5q0 11.24-2.19 22.24-.13.63.44.32l8.54-4.6 1.25 2.58-8.97 5.08a.43.43 0 0 0-.03.73q4.83 3.26 10.08 5.61 1.07 1.53.13 3.29-6.51-2.45-12.61-6.01-.39-.23-.59.18l-10.34 21.49a.26.26 0 0 0 .34.35l23.95-10.26.08 2.75q-12.29 6.25-25.14 11.27-.75.3-.03.65l6.67 3.33q.49 1.73-.04 3.46L77.72 160a.91.9 29.9 0 0-1.06.28l-8.37 10.97q-.23-.93-1.12-1.2-.55-.16-.59-.73l-.12-1.57 4.3-6.62a.38.38 0 0 0-.41-.57l-14.1 3.65-2.25-2.67 14.63-4.71a.33.33 0 0 0 .07-.59l-3.2-1.95q-.7-2.56.47-4.87.06-.12-.07-.17c-.44-.2.04-.59.35-.54l7.55 5.04q.48.32.8-.16 6.84-10.05 11.6-21.25.22-.52-.32-.35l-17.09 5.51q0-.67-.53-.82-.48-.13-.43-.63.13-1.21-.83-2.01 9.74-2.41 18.84-6.89a.71.71 0 0 0 .15-1.18q-7.14-6.04-10.38-14.75-.17-.46-.54-.78-.25-.22-.36-.44l3.29-1.21q3.81 8.73 11 14.96a.23.22 30.6 0 0 .36-.09q3.38-10.05 3.1-20.66 1.56-1.2 3.5-1.5Z"/><path fill="#9e9d9d" d="M72.25 110.79H73q-4.25 12.9-11.73 24.33a.35.35 0 0 0 .4.53l5.33-1.61q.96.8.83 2.01-.05.5.43.63.53.15.53.82l-9.78 3.15q-.54.17-.19.62 3.26 4.16 7.43 7.44c-.31-.05-.79.34-.35.54q.13.05.07.17-1.17 2.31-.47 4.87-5.76-3.46-10.53-9.53 1.6-1.39.84-3.62-.17-.49-.14-1.02l.29-4.62q.04-.63.39-1.16 6.7-10.21 11.69-21.34l4.21-2.21Z"/><path fill="#888787" d="M53 120.04q-1.36 8.01 1.8 15.28.25.59.84.32l.32-.14-.29 4.62q-.03.53.14 1.02.76 2.23-.84 3.62l-17.5 21.63a.28.27 10.5 0 0 .3.43L54 161.54l2.25 2.67-16.49 4.35q-.78.2-.08.6l8.36 4.84q-.17.25-.16.59 0 .16-.16.16h-.27q-.24 0-.16.22.6 1.82-.29 3.49-8.29-2.65-15.54-7.46l.63-4.01q.1-.65.74-.51 2.3.49 2.63-1.73l14.92-21.15a.32.32 0 0 0-.34-.5l-21 4.9q.15-1.59-1.08-2.5l22.02-6.58q.57-.17.32-.71-3.32-7.22-3.09-15.21l5.79-2.96Z"/><path fill="#777676" d="m31.5 130.71.75.33q-5.06 7.09-8.79 15.1a.44.44 0 0 0 .53.6l3.97-1.24q1.23.91 1.08 2.5l-4.51 1.21q-.96.26-.67 1.2 2.71 9.08 10.3 14.75.41.31.81-.01l.49-.4q-.33 2.22-2.63 1.73-.64-.14-.74.51l-.63 4.01q-10.29-6.15-13.19-16c-2.48-8.45 7.04-19.23 13.23-24.29Z"/><path fill="#9e9d9d" d="m66.46 167.75.12 1.57q.04.57.59.73.89.27 1.12 1.2l-4.81 6.66q-.42.58.28.44 11.79-2.25 23.24-5.81.97.91 1.29 2.21-9.23 3.01-19.64 4.91a.31.31 0 0 0 0 .61q14.04 2.62 28.6 4.02.13 1.62-1.25 2.42-25.1-.67-49-8.25.89-1.67.29-3.49-.08-.22.16-.22h.27q.16 0 .16-.16-.01-.34.16-.59l10.62 3.94a1.01 1.01 0 0 0 1.18-.38l6.62-9.81Z"/><path fill="#010001" fill-opacity=".976" d="m114.25 182.75-1.3.31q-.55.13-.54.7l.05 3.63q.01.91-.58.22c-1.24-1.45.76-3.27-1.35-4.66q-.53-.35.07-.54 1.97-.63 3.65.34ZM114.25 182.75l.85-.41q.56-.26.73.32l.59 1.93q.05.16.23.16h.27q.23-.01.31-.22l.84-2.23a.52.52 0 0 1 .99.29q-.51 2.5-.09 4.97.28 1.64-.53.18-.49-.88-.49-1.69-.01-.92-.71-.33-.91.77-1.49.06-.18-.23-.22.06l-.18 1.54q-.11.89-.59.14c-.89-1.38.75-2.85-.51-4.77Z"/></svg>