<svg xmlns="http://www.w3.org/2000/svg" viewBox="0 0 200 73" enable-background="new 0 0 200 73"><g fill="#004750" stroke="#004750" stroke-width=".246" stroke-linejoin="round"><path d="M58.92 36.868c.943 4.428 2.33 8.562 7.975 8.562 4.1 0 6.534-2.214 6.534-5.56 0-3.987-4.43-5.562-8.86-7.48-4.43-1.968-8.803-4.23-8.803-9.644 0-5.263 4.65-9.988 14.452-9.988 4.15 0 7.252.838 9.8 1.575-.058 1.722-.168 3.544-.168 5.266 0 1.277.058 2.556.168 3.638h-2.715c-.885-4.526-2.27-7.823-7.53-7.823-3.708 0-5.98 1.872-5.98 4.477 0 3.79 4.43 5.217 8.915 7.184 4.486 1.97 8.972 4.53 8.972 10.58 0 3-1.72 6.1-4.653 8.068-2.88 1.92-6.534 2.56-11.13 2.56-4.817 0-7.973-.887-10.132-1.477.276-2.263.498-4.92.498-7.97V36.87h2.655zM82.727 23.583c.83-6.397.83-9.398.83-10.086 5.927.147 11.353.245 16.28.245 8.862 0 14.675-.147 17.056-.245.055 3.79.443 7.135.83 10.086h-2.55c-2.544-6.988-1.88-6.988-7.14-6.988h-3.712v23.47c0 5.2-.104 4.757 5.496 5.623.18.026-.184-.032 0 0l-.01 1.84c-.188-.003.183.006 0 0-3.462-.098-6.816-.23-9.967-.23-3.99 0-7.31.147-9.856.248v-1.774c6.422-.982 6.09-.59 6.09-5.608v-23.57h-5.426c-3.267 0-3.267 1.33-4.15 3.496-.335.786-.722 1.87-1.275 3.492h-2.496zM153.136 47.468c-2.355-.104-4.74-.17-7.123-.17-3.432 0-6.864.098-10.296.248v-1.774c2.876-.49 4.316-.59 4.316-1.77 0-.59-1.163-2.902-2.99-6.838-2.213-.05-4.54-.05-6.754-.05-2.106 0-4.377 0-6.537.05-1.883 3.985-2.99 6.1-2.99 7.033 0 1.034 1.44 1.086 4.262 1.575v1.774c-2.27-.2-4.647-.248-6.864-.248-2.066 0-4.292.095-6.365.24-.037.002.037-.004 0 0V45.75c.04-.01-.035.006 0 0 3.553-.68 3.942-1.235 5.257-3.667 5.04-9.35 9.913-19.14 14.897-29.327h2.213c1.716 3.838 5.038 10.53 9.855 20.174 1.66 3.297 3.265 6.447 5.26 9.792.855 1.436 1.016 1.894 3.858 2.648v2.096zM130.508 23.09l-5.482 11.32c1.72 0 3.602.048 5.318.048 1.77 0 3.766-.05 5.537-.05l-5.372-11.317zM155.134 45.274c2.038-.377 2.58-.772 2.778-2.257.055-.44.112-5.853.112-16.138 0-5.463-.057-8.564-.112-8.808-.276-2.214-.993-1.92-5.923-2.853v-1.674c3.874.098 7.586.245 10.96.245 3.38 0 6.645-.244 9.58-.244 2.714 0 5.095.196 7.088 1.18 2.657 1.327 4.373 4.034 4.373 7.135 0 3.84-2.158 7.087-6.918 9.203 2.433 3.688 4.926 7.28 7.307 10.725 2.158 3.05 3.82 3.345 8.305 3.984v1.774c-2.38-.15-4.874-.248-7.143-.248-2.603 0-5.315.098-7.863.248-2.327-4.724-5.206-9.89-8.472-15.452-1.108-.05-2.214-.098-3.213-.196.055 12.152-.498 12.742 2.38 13.235l3.712.64v1.773c-3.377-.15-6.867-.248-10.41-.248-2.157 0-4.37.046-6.545.118v-2.142zm10.918-16.082c.5 0 1.443.05 1.94.05 4.927 0 7.42-1.968 7.42-6.496 0-3.835-2.216-6.346-6.477-6.346-1.163 0-1.72.147-2.882.245v12.547z"/></g><linearGradient id="a" gradientUnits="userSpaceOnUse" x1="31.146" y1="49.209" x2="22.956" y2="2.762"><stop offset="0" stop-color="#FFFFFE"/><stop offset=".14" stop-color="#FEFCFA"/><stop offset=".272" stop-color="#FDF5EF"/><stop offset=".401" stop-color="#FAE8DC"/><stop offset=".527" stop-color="#F6D6C1"/><stop offset=".652" stop-color="#F1BE9F"/><stop offset=".776" stop-color="#EBA174"/><stop offset=".897" stop-color="#E48043"/><stop offset="1" stop-color="#DD5F13"/></linearGradient><path fill="url(#a)" d="M2.384 19.59l17.587.097 6.243-17.5 5.92 17.46 17.34.01L35.346 30.15l6.132 17.237L25.89 36.64 10.765 47.278l5.495-17.185z"/><path fill="#DD5F13" d="M2.384 19.59l17.587.097 6.243-17.5 5.92 17.46 17.34.01L35.346 30.15l6.132 17.237L25.89 36.64 10.765 47.278l5.495-17.185z"/><path fill="none" stroke="#DD5F13" stroke-width="1.25" d="M2.384 19.59l17.587.097 6.243-17.5 5.92 17.46 17.34.01L35.346 30.15l6.132 17.237L25.89 36.64 10.765 47.278l5.495-17.185z"/><linearGradient id="b" gradientUnits="userSpaceOnUse" x1="38.986" y1="48.828" x2="15.598" y2="8.319"><stop offset=".176" stop-color="#FFE7DA"/><stop offset=".301" stop-color="#FEE4D6"/><stop offset=".418" stop-color="#FCDDCB"/><stop offset=".533" stop-color="#F9D0B8"/><stop offset=".646" stop-color="#F5BE9D"/><stop offset=".757" stop-color="#EFA67B"/><stop offset=".868" stop-color="#E78951"/><stop offset=".976" stop-color="#DF6820"/><stop offset="1" stop-color="#DD5F13"/></linearGradient><path fill="url(#b)" d="M2.384 19.595l17.59.098 6.24-17.502 5.92 17.46 17.34.01-14.128 10.493 6.13 17.237-15.585-10.747L10.765 47.28l5.495-17.184z"/><path fill="none" stroke="#FFDFCE" stroke-width=".4" d="M2.384 19.595l17.59.098 6.24-17.502 5.92 17.46 17.34.01-14.128 10.493 6.13 17.237-15.585-10.747L10.765 47.28l5.495-17.184z"/><linearGradient id="c" gradientUnits="userSpaceOnUse" x1="35.722" y1="49.066" x2="26.587" y2="23.966"><stop offset=".005" stop-color="#F7AB82"/><stop offset=".193" stop-color="#FBBA98"/><stop offset=".357" stop-color="#FDC5A7"/><stop offset=".458" stop-color="#F9B996"/><stop offset=".656" stop-color="#F09C6B"/><stop offset=".931" stop-color="#E16C26"/><stop offset="1" stop-color="#DD5F13"/></linearGradient><path fill="url(#c)" d="M25.93 24.91c-5.698 3.133-9.617 6.694-10.376 7.967l-4.515 14.03L25.91 36.47l15.304 10.598-6.028-16.894L48.973 19.82l-7.74-.017s-5.5-.283-15.302 5.107z"/><path fill="#004750" d="M8.066 58.225h1.086c1.676 0 3.26.458 3.26 2.55 0 .678-.355 1.467-.958 1.76v.026c1.05.197 1.784 1.27 1.784 2.353 0 1.86-1.524 2.597-3.094 2.597H8.066v-9.285zm1.11 4.114h.284c1.05 0 1.913-.223 1.913-1.553 0-1.307-.85-1.526-1.89-1.526h-.307v3.08zm0 4.136h.85c1.028 0 2.102-.32 2.102-1.638 0-1.304-1.275-1.575-2.267-1.575h-.684v3.213zM19.83 67.51h-1.062v-.898h-.024c-.425.654-1.087 1.097-1.878 1.097-1.69 0-2.645-1.466-2.645-3.116 0-1.578 1.004-3.017 2.61-3.017.815 0 1.476.44 1.913 1.132h.024v-.96h1.062v5.76zm-1.004-2.882c0-1.12-.65-2.067-1.794-2.067-1.098 0-1.748 1-1.748 2.068 0 1.085.626 2.096 1.748 2.096 1.157 0 1.794-.962 1.794-2.096zM22.562 62.523h.023c.33-.616.992-.947 1.665-.947 1.558 0 1.96 1.097 1.96 2.5v3.434h-1.062v-3.3c0-.985-.13-1.65-1.216-1.65-1.37 0-1.37 1.255-1.37 2.303v2.646H21.5v-5.762h1.063v.775zM29.095 63.914l2.078-2.165h1.405l-2.36 2.386 2.597 3.374h-1.382l-1.972-2.623-.365.383v2.24h-1.062V56.822h1.062v7.092zM49.403 67.51h-1.11v-9.285h1.11v9.285zM52.297 62.523h.024c.332-.616.992-.947 1.666-.947 1.558 0 1.96 1.097 1.96 2.5v3.434h-1.062v-3.3c0-.985-.13-1.65-1.216-1.65-1.37 0-1.37 1.255-1.37 2.303v2.646h-1.062v-5.762h1.062v.775zM59.916 63.067c-.13-.285-.4-.507-.708-.507-.296 0-.58.248-.58.567 0 .504.64.726 1.288 1.034.65.31 1.275.727 1.275 1.64 0 1.093-.873 1.908-1.9 1.908-.804 0-1.618-.48-1.914-1.293l.91-.432c.224.432.495.74 1.002.74.45 0 .838-.323.838-.815 0-.305-.142-.455-.39-.628L58.7 64.7c-.615-.345-1.063-.664-1.063-1.453 0-.933.732-1.673 1.63-1.673.673 0 1.216.38 1.512 1.008l-.86.485zM63.533 61.75v3.186c0 .924.224 1.736 1.275 1.736 1.05 0 1.275-.812 1.275-1.736V61.75h1.063v3.31c0 1.578-.71 2.65-2.338 2.65-1.63 0-2.338-1.072-2.338-2.65v-3.31h1.063zM69.983 62.684h.035c.26-.68.803-1.108 1.512-1.108.307 0 .614.11.873.282l-.484 1.01c-.19-.172-.403-.235-.65-.235-1.146 0-1.287 1.108-1.287 2.044v2.833H68.92v-5.76h1.063v.934zM78.463 67.51H77.4v-.898h-.023c-.425.654-1.087 1.097-1.878 1.097-1.69 0-2.646-1.466-2.646-3.116 0-1.578 1.003-3.017 2.61-3.017.815 0 1.476.44 1.913 1.132h.023v-.96h1.063v5.76zm-1.004-2.882c0-1.12-.65-2.067-1.796-2.067-1.098 0-1.747 1-1.747 2.068 0 1.085.625 2.096 1.747 2.096 1.158 0 1.795-.962 1.795-2.096zM81.194 62.523h.024c.33-.616.99-.947 1.665-.947 1.558 0 1.96 1.097 1.96 2.5v3.434H83.78v-3.3c0-.985-.13-1.65-1.215-1.65-1.37 0-1.37 1.255-1.37 2.303v2.646h-1.062v-5.762h1.062v.775zM90.656 63.384c-.425-.504-.944-.775-1.582-.775-1.04 0-1.842.96-1.842 2.017 0 1.183.79 2.044 1.912 2.044.615 0 1.11-.293 1.512-.762v1.417c-.484.27-.967.383-1.523.383-1.63 0-2.963-1.307-2.963-3.032 0-1.785 1.322-3.1 3.022-3.1.497 0 1.04.123 1.464.38v1.428zM92.725 64.812c.01.988.65 1.912 1.664 1.912.815 0 1.25-.432 1.653-1.12l.898.527c-.52 1-1.488 1.58-2.563 1.58-1.69 0-2.715-1.33-2.715-3.033 0-1.774.91-3.1 2.692-3.1 1.76 0 2.587 1.355 2.587 3.065v.17h-4.215zm3.152-.835c-.13-.864-.672-1.442-1.523-1.442-.825 0-1.44.616-1.57 1.442h3.093zM113.872 67.51h-1.11v-9.285h1.276c2.738 0 3.59.988 3.59 2.686 0 1.96-1.43 2.71-3.118 2.71h-.638v3.89zm0-4.926h.354c1.133 0 2.36-.22 2.36-1.7 0-1.453-1.32-1.623-2.418-1.623h-.295v3.324zM119.91 62.684h.036c.26-.68.8-1.108 1.512-1.108.305 0 .612.11.87.282l-.48 1.01c-.19-.172-.403-.235-.652-.235-1.144 0-1.285 1.108-1.285 2.044v2.833h-1.063v-5.76h1.064v.934zM124.707 59.11c0 .42-.33.753-.734.753-.4 0-.73-.33-.73-.752 0-.428.33-.774.73-.774.403 0 .734.346.734.775zm-.202 8.4h-1.062v-5.76h1.062v5.76zM128.38 65.345l1.595-3.596h1.192l-2.786 5.96-2.775-5.96h1.193l1.583 3.595zM137.215 67.51h-1.062v-.898h-.023c-.426.654-1.088 1.097-1.88 1.097-1.69 0-2.644-1.466-2.644-3.116 0-1.578 1.002-3.017 2.61-3.017.814 0 1.476.44 1.914 1.132h.023v-.96h1.062v5.76zm-1.003-2.882c0-1.12-.65-2.067-1.797-2.067-1.097 0-1.746 1-1.746 2.068 0 1.085.625 2.096 1.745 2.096 1.158 0 1.797-.962 1.797-2.096zM140.1 67.51h-1.062v-4.728h-.58v-1.034h.58v-2.205h1.06v2.205h1.04v1.034h-1.04v4.728zM142.64 64.812c.013.988.65 1.912 1.665 1.912.813 0 1.25-.432 1.653-1.12l.897.527c-.52 1-1.487 1.58-2.56 1.58-1.69 0-2.718-1.33-2.718-3.033 0-1.774.908-3.1 2.692-3.1 1.758 0 2.584 1.355 2.584 3.065v.17h-4.213zm3.152-.835c-.13-.864-.674-1.442-1.523-1.442-.83 0-1.44.616-1.57 1.442h3.092zM153.128 65.184l-1.016 2.326h-1.19l4.25-9.68 4.25 9.68h-1.193l-1.016-2.326h-4.086zm2.043-4.817l-1.58 3.757h3.163l-1.582-3.757zM164.458 66.612h-.024c-.423.654-1.098 1.097-1.876 1.097-1.702 0-2.646-1.466-2.646-3.116 0-1.578 1.003-3.017 2.598-3.017.825 0 1.487.44 1.923 1.132h.024v-5.886h1.062V67.51h-1.063v-.898zm.06-1.984c0-1.12-.652-2.067-1.796-2.067-1.1 0-1.746 1-1.746 2.068 0 1.085.623 2.096 1.746 2.096 1.156 0 1.795-.962 1.795-2.096zM169.078 65.345l1.594-3.596h1.193l-2.787 5.96-2.774-5.96h1.192l1.582 3.595zM174.23 59.11c0 .42-.332.753-.732.753-.402 0-.733-.33-.733-.752 0-.428.33-.774.733-.774.4 0 .73.346.73.775zm-.203 8.4h-1.06v-5.76h1.06v5.76zM178.235 63.067c-.133-.285-.403-.507-.71-.507-.295 0-.578.248-.578.567 0 .504.636.726 1.288 1.034.648.31 1.274.727 1.274 1.64 0 1.093-.875 1.908-1.903 1.908-.802 0-1.618-.48-1.913-1.293l.91-.432c.224.432.496.74 1.003.74.45 0 .84-.323.84-.815 0-.305-.142-.455-.39-.628l-1.04-.58c-.613-.345-1.064-.664-1.064-1.453 0-.933.734-1.673 1.63-1.673.675 0 1.216.38 1.512 1.008l-.86.485zM186.242 64.642c0 1.736-1.298 3.066-2.95 3.066-1.655 0-2.954-1.33-2.954-3.066 0-1.74 1.3-3.066 2.953-3.066 1.653 0 2.952 1.327 2.952 3.066zm-4.842 0c0 1.082.838 2.007 1.89 2.007 1.05 0 1.887-.925 1.887-2.008 0-1.097-.838-2.01-1.887-2.01-1.052 0-1.89.913-1.89 2.01zM188.63 62.684h.036c.26-.68.802-1.108 1.51-1.108.308 0 .615.11.874.282l-.482 1.01c-.19-.172-.403-.235-.652-.235-1.145 0-1.286 1.108-1.286 2.044v2.833h-1.062v-5.76h1.062v.934zM191.512 61.75h1.238l1.867 3.655 1.735-3.656h1.193l-4.476 9.063h-1.204l2.172-4.287-2.526-4.777z"/><g fill="#004750"><path d="M193.92 45.766h1.59V46h-.663v1.72h-.263V46h-.662v-.234zM197.36 47.718v-1.152c0-.057.006-.305.006-.49h-.006l-.55 1.642h-.26L196 46.08h-.007c0 .18.006.43.006.486v1.152h-.257v-1.952h.38l.556 1.65h.005l.556-1.65h.377v1.952h-.257z"/></g><path fill="none" stroke="#004750" stroke-width=".25" d="M39.854 56.822v13.99M104.957 56.822v13.99"/></svg>